<svg width="24" height="24" viewBox="0 0 24 24" fill="none" xmlns="http://www.w3.org/2000/svg">
<path d="M16.8 19.2C16.8 19.8365 17.0529 20.447 17.5029 20.8971C17.953 21.3472 18.5635 21.6 19.2 21.6C19.8365 21.6 20.447 21.3472 20.8971 20.8971C21.3471 20.447 21.6 19.8365 21.6 19.2C21.6 18.5635 21.3471 17.9531 20.8971 17.503C20.447 17.0529 19.8365 16.8 19.2 16.8C18.5635 16.8 17.953 17.0529 17.5029 17.503C17.0529 17.9531 16.8 18.5635 16.8 19.2ZM2.39999 19.2C2.39999 19.8365 2.65285 20.447 3.10294 20.8971C3.55303 21.3472 4.16347 21.6 4.79999 21.6C5.43651 21.6 6.04696 21.3472 6.49705 20.8971C6.94714 20.447 7.19999 19.8365 7.19999 19.2C7.19999 18.5635 6.94714 17.9531 6.49705 17.503C6.04696 17.0529 5.43651 16.8 4.79999 16.8C4.16347 16.8 3.55303 17.0529 3.10294 17.503C2.65285 17.9531 2.39999 18.5635 2.39999 19.2ZM16.8 4.80002C16.8 5.43654 17.0529 6.04699 17.5029 6.49708C17.953 6.94717 18.5635 7.20002 19.2 7.20002C19.8365 7.20002 20.447 6.94717 20.8971 6.49708C21.3471 6.04699 21.6 5.43654 21.6 4.80002C21.6 4.1635 21.3471 3.55306 20.8971 3.10297C20.447 2.65288 19.8365 2.40002 19.2 2.40002C18.5635 2.40002 17.953 2.65288 17.5029 3.10297C17.0529 3.55306 16.8 4.1635 16.8 4.80002ZM2.39999 4.80002C2.39999 5.43654 2.65285 6.04699 3.10294 6.49708C3.55303 6.94717 4.16347 7.20002 4.79999 7.20002C5.43651 7.20002 6.04696 6.94717 6.49705 6.49708C6.94714 6.04699 7.19999 5.43654 7.19999 4.80002C7.19999 4.1635 6.94714 3.55306 6.49705 3.10297C6.04696 2.65288 5.43651 2.40002 4.79999 2.40002C4.16347 2.40002 3.55303 2.65288 3.10294 3.10297C2.65285 3.55306 2.39999 4.1635 2.39999 4.80002Z" stroke="#1D2E2E" stroke-opacity="0.8" stroke-width="1.5" stroke-linecap="round" stroke-linejoin="round"/>
</svg>
