<svg width="24" height="24" viewBox="0 0 24 24" fill="none" xmlns="http://www.w3.org/2000/svg">
<g clip-path="url(#clip0_96_1822)">
<path d="M19.2 2.32258V0H17.6V2.32258H6.4V0H4.8V2.32258H0V24H24V13.1613V2.32258H19.2ZM1.6 3.87097H4.8V6.19355H6.4V3.87097H17.6V6.19355H19.2V3.87097H22.4V10.0645H1.6V3.87097ZM22.4 22.4516H1.6V11.6129H22.4V22.4516Z" fill="#1D2E2E" fill-opacity="0.8"/>
<path d="M10.7622 21.6V14.9348L11.7108 15.9158L12.2968 15.3102L10.3484 13.2978L8.39999 15.3102L8.986 15.9158L9.93454 14.9348V21.6H10.7622Z" fill="#1D2E2E" fill-opacity="0.8"/>
<path d="M13.8313 13.2V19.8652L12.8828 18.8842L12.2968 19.4897L14.2452 21.5022L16.1935 19.4897L15.6075 18.8842L14.659 19.8652V13.2H13.8313Z" fill="#1D2E2E" fill-opacity="0.8"/>
</g>
<defs>
<clipPath id="clip0_96_1822">
<rect width="24" height="24" fill="white"/>
</clipPath>
</defs>
</svg>
