<svg width="24" height="24" viewBox="0 0 24 24" fill="none" xmlns="http://www.w3.org/2000/svg">
<path d="M20.1667 7.00004H11.1667C9.60433 7.00004 8.33333 5.72904 8.33333 4.16671C8.33333 2.60437 9.60433 1.33337 11.1667 1.33337H20.1667C21.729 1.33337 23 2.60437 23 4.16671C23 5.72904 21.729 7.00004 20.1667 7.00004ZM11.1667 2.66671C10.3397 2.66671 9.66667 3.33971 9.66667 4.16671C9.66667 4.99371 10.3397 5.66671 11.1667 5.66671H20.1667C20.9937 5.66671 21.6667 4.99371 21.6667 4.16671C21.6667 3.33971 20.9937 2.66671 20.1667 2.66671H11.1667ZM20.1667 22.6667H11.1667C9.60433 22.6667 8.33333 21.3957 8.33333 19.8334C8.33333 18.271 9.60433 17 11.1667 17H20.1667C21.729 17 23 18.271 23 19.8334C23 21.3957 21.729 22.6667 20.1667 22.6667ZM11.1667 18.3334C10.3397 18.3334 9.66667 19.0064 9.66667 19.8334C9.66667 20.6604 10.3397 21.3334 11.1667 21.3334H20.1667C20.9937 21.3334 21.6667 20.6604 21.6667 19.8334C21.6667 19.0064 20.9937 18.3334 20.1667 18.3334H11.1667ZM20.1667 15H11.1667C9.60433 15 8.33333 13.729 8.33333 12.1667C8.33333 10.6044 9.60433 9.33337 11.1667 9.33337H20.1667C21.729 9.33337 23 10.6044 23 12.1667C23 13.729 21.729 15 20.1667 15ZM11.1667 10.6667C10.3397 10.6667 9.66667 11.3397 9.66667 12.1667C9.66667 12.9937 10.3397 13.6667 11.1667 13.6667H20.1667C20.9937 13.6667 21.6667 12.9937 21.6667 12.1667C21.6667 11.3397 20.9937 10.6667 20.1667 10.6667H11.1667ZM4.16667 7.00004H3.83333C2.271 7.00004 1 5.72904 1 4.16671C1 2.60437 2.271 1.33337 3.83333 1.33337H4.16667C5.729 1.33337 7 2.60437 7 4.16671C7 5.72904 5.729 7.00004 4.16667 7.00004ZM3.83333 2.66671C3.00633 2.66671 2.33333 3.33971 2.33333 4.16671C2.33333 4.99371 3.00633 5.66671 3.83333 5.66671H4.16667C4.99367 5.66671 5.66667 4.99371 5.66667 4.16671C5.66667 3.33971 4.99367 2.66671 4.16667 2.66671H3.83333ZM4.16667 22.6667H3.83333C2.271 22.6667 1 21.3957 1 19.8334C1 18.271 2.271 17 3.83333 17H4.16667C5.729 17 7 18.271 7 19.8334C7 21.3957 5.729 22.6667 4.16667 22.6667ZM3.83333 18.3334C3.00633 18.3334 2.33333 19.0064 2.33333 19.8334C2.33333 20.6604 3.00633 21.3334 3.83333 21.3334H4.16667C4.99367 21.3334 5.66667 20.6604 5.66667 19.8334C5.66667 19.0064 4.99367 18.3334 4.16667 18.3334H3.83333ZM4.16667 15H3.83333C2.271 15 1 13.729 1 12.1667C1 10.6044 2.271 9.33337 3.83333 9.33337H4.16667C5.729 9.33337 7 10.6044 7 12.1667C7 13.729 5.729 15 4.16667 15ZM3.83333 10.6667C3.00633 10.6667 2.33333 11.3397 2.33333 12.1667C2.33333 12.9937 3.00633 13.6667 3.83333 13.6667H4.16667C4.99367 13.6667 5.66667 12.9937 5.66667 12.1667C5.66667 11.3397 4.99367 10.6667 4.16667 10.6667H3.83333Z" fill="#1D2E2E" fill-opacity="0.8"/>
</svg>
