<svg width="24" height="24" viewBox="0 0 24 24" fill="none" xmlns="http://www.w3.org/2000/svg">
<path d="M11.579 12.056C14.2178 12.056 16.357 9.91682 16.357 7.278C16.357 4.63918 14.2178 2.5 11.579 2.5C8.94018 2.5 6.80099 4.63918 6.80099 7.278C6.80099 9.91682 8.94018 12.056 11.579 12.056Z" stroke="#00A3A3" stroke-width="1.5" stroke-linecap="round" stroke-linejoin="round"/>
<path fill-rule="evenodd" clip-rule="evenodd" d="M3.99999 18.7014C3.99872 18.3655 4.07384 18.0338 4.21968 17.7312C4.67735 16.8158 5.96796 16.3307 7.0389 16.111C7.81126 15.9462 8.59429 15.8361 9.38215 15.7815C10.8408 15.6534 12.3079 15.6534 13.7666 15.7815C14.5544 15.8367 15.3374 15.9468 16.1098 16.111C17.1808 16.3307 18.4714 16.7701 18.9291 17.7312C19.2224 18.348 19.2224 19.064 18.9291 19.6808C18.4714 20.6419 17.1808 21.0813 16.1098 21.2918C15.3384 21.4635 14.5551 21.5767 13.7666 21.6305C12.5794 21.7311 11.3866 21.7495 10.1968 21.6854C9.9222 21.6854 9.65675 21.6854 9.38215 21.6305C8.59662 21.5773 7.8163 21.4641 7.04806 21.2918C5.96796 21.0813 4.6865 20.6419 4.21968 19.6808C4.07458 19.3748 3.99954 19.0402 3.99999 18.7014Z" stroke="#00A3A3" stroke-width="1.5" stroke-linecap="round" stroke-linejoin="round"/>
</svg>
